<svg width="38" height="38" viewBox="0 0 38 38" fill="none" xmlns="http://www.w3.org/2000/svg">
<path d="M18.7916 4.69788H7.82973C6.99908 4.69788 6.20245 5.02785 5.61509 5.61521C5.02773 6.20257 4.69775 6.9992 4.69775 7.82985V29.7537C4.69775 30.5843 5.02773 31.381 5.61509 31.9683C6.20245 32.5557 6.99908 32.8857 7.82973 32.8857H29.7536C30.5842 32.8857 31.3808 32.5557 31.9682 31.9683C32.5556 31.381 32.8855 30.5843 32.8855 29.7537V18.7918" stroke="#E96875" stroke-width="2" stroke-linecap="round" stroke-linejoin="round"/>
<path d="M28.7749 4.11068C29.3979 3.48769 30.2428 3.1377 31.1239 3.1377C32.0049 3.1377 32.8499 3.48769 33.4728 4.11068C34.0958 4.73366 34.4458 5.57862 34.4458 6.45966C34.4458 7.3407 34.0958 8.18565 33.4728 8.80864L19.3586 22.9245C18.9867 23.296 18.5274 23.5679 18.0228 23.7153L13.5237 25.0307C13.389 25.07 13.2461 25.0724 13.1102 25.0375C12.9742 25.0027 12.8501 24.932 12.7508 24.8327C12.6516 24.7334 12.5808 24.6093 12.546 24.4734C12.5111 24.3374 12.5135 24.1946 12.5528 24.0598L13.8682 19.5607C14.0163 19.0565 14.2888 18.5977 14.6606 18.2265L28.7749 4.11068Z" stroke="#E96875" stroke-width="2" stroke-linecap="round" stroke-linejoin="round"/>
</svg>
