<svg width="38" height="38" viewBox="0 0 38 38" fill="none" xmlns="http://www.w3.org/2000/svg">
<path d="M18.792 3.13196C15.8847 3.13196 13.0965 4.28687 11.0407 6.34263C8.98497 8.39839 7.83006 11.1866 7.83006 14.0939V19.6187C7.83029 19.8616 7.774 20.1013 7.66563 20.3187L4.97683 25.6947C4.84549 25.9574 4.78347 26.2492 4.79666 26.5426C4.80986 26.8359 4.89783 27.1211 5.05223 27.3709C5.20662 27.6207 5.42231 27.8268 5.67881 27.9698C5.93531 28.1128 6.22411 28.1878 6.51776 28.1878H31.0662C31.3599 28.1878 31.6486 28.1128 31.9051 27.9698C32.1616 27.8268 32.3773 27.6207 32.5317 27.3709C32.6861 27.1211 32.7741 26.8359 32.7873 26.5426C32.8005 26.2492 32.7385 25.9574 32.6071 25.6947L29.9199 20.3187C29.811 20.1014 29.7542 19.8617 29.7539 19.6187V14.0939C29.7539 11.1866 28.599 8.39839 26.5432 6.34263C24.4875 4.28687 21.6993 3.13196 18.792 3.13196ZM18.792 32.8857C17.82 32.8862 16.8719 32.5853 16.0782 32.0244C15.2844 31.4634 14.6842 30.6701 14.3602 29.7538H23.2237C22.8997 30.6701 22.2995 31.4634 21.5058 32.0244C20.7121 32.5853 19.7639 32.8862 18.792 32.8857Z" fill="#E196FF"/>
</svg>
